<svg xmlns="http://www.w3.org/2000/svg" xmlns:xlink="http://www.w3.org/1999/xlink" fill="none" version="1.1" width="88" height="24" viewBox="0 0 88 24"><defs><clipPath id="master_svg0_25_0567"><rect x="0" y="0" width="88" height="24" rx="0"/></clipPath></defs><g clip-path="url(#master_svg0_25_0567)"><g><path d="M1.5,9L1.5,15Q1.5,15.12282,1.5120399999999998,15.24504Q1.52408,15.367270000000001,1.5480399999999999,15.48772Q1.572,15.60818,1.60765,15.72571Q1.6433,15.84324,1.6903000000000001,15.956710000000001Q1.7372999999999998,16.07018,1.7952,16.17849Q1.85309,16.28681,1.9213300000000002,16.38892Q1.98956,16.491039999999998,2.06747,16.58598Q2.14539,16.68092,2.23223,16.76777Q2.31908,16.85461,2.41402,16.93253Q2.50896,17.01044,2.61107,17.078670000000002Q2.71319,17.14691,2.82151,17.2048Q2.9298200000000003,17.262700000000002,3.043292,17.3097Q3.1567600000000002,17.3567,3.274288,17.39235Q3.391817,17.428,3.512274,17.45196Q3.632731,17.475920000000002,3.754957,17.48796Q3.877183,17.5,4,17.5Q4.122817,17.5,4.245043,17.48796Q4.367269,17.475920000000002,4.487726,17.45196Q4.608183,17.428,4.725712,17.39235Q4.84324,17.3567,4.956708,17.3097Q5.07018,17.262700000000002,5.17849,17.2048Q5.28681,17.14691,5.38893,17.078670000000002Q5.49104,17.01044,5.58598,16.93253Q5.68092,16.85461,5.7677700000000005,16.76777Q5.85461,16.68092,5.93253,16.58598Q6.01044,16.491039999999998,6.07867,16.38892Q6.14691,16.28681,6.2048000000000005,16.17849Q6.262700000000001,16.07018,6.309699999999999,15.956710000000001Q6.3567,15.84324,6.39235,15.72571Q6.428,15.60818,6.45196,15.487729999999999Q6.47592,15.367270000000001,6.48796,15.24504Q6.5,15.12282,6.5,15L6.5,9Q6.5,8.877183,6.48796,8.754957Q6.47592,8.632731,6.45196,8.512274Q6.428,8.391817,6.39235,8.274288Q6.3567,8.15676,6.309699999999999,8.043292Q6.262700000000001,7.92982,6.2048000000000005,7.82151Q6.14691,7.71319,6.07867,7.61107Q6.01044,7.50896,5.93253,7.41402Q5.85461,7.31908,5.7677700000000005,7.2322299999999995Q5.68092,7.14539,5.58598,7.06747Q5.49104,6.98956,5.38893,6.92133Q5.28681,6.85309,5.17849,6.7951999999999995Q5.07018,6.737299999999999,4.956708,6.690300000000001Q4.84324,6.6433,4.725712,6.60765Q4.608183,6.572,4.487726,6.54804Q4.367269,6.52408,4.245043,6.51204Q4.122817,6.5,4,6.5Q3.877183,6.5,3.754957,6.51204Q3.632731,6.52408,3.512274,6.54804Q3.391817,6.572,3.274288,6.60765Q3.1567600000000002,6.6433,3.043292,6.690300000000001Q2.9298200000000003,6.737299999999999,2.82151,6.7951999999999995Q2.71319,6.85309,2.61107,6.92133Q2.50896,6.98956,2.41402,7.06747Q2.31908,7.14539,2.23223,7.2322299999999995Q2.14539,7.31908,2.06747,7.41402Q1.98956,7.50896,1.9213300000000002,7.61107Q1.85309,7.71319,1.7952,7.82151Q1.7372999999999998,7.92982,1.6903000000000001,8.043292Q1.6433,8.15676,1.60765,8.274288Q1.572,8.391817,1.5480399999999999,8.512274Q1.52408,8.632731,1.5120399999999998,8.754957Q1.5,8.877183,1.5,9Z" fill-rule="evenodd" fill="#FFFFFF" fill-opacity="1"/></g><g><path d="M12.5,6L12.5,18Q12.5,18.122799999999998,12.512039999999999,18.244999999999997Q12.52408,18.3673,12.54804,18.4877Q12.572,18.6082,12.60765,18.7257Q12.6433,18.8432,12.6903,18.956699999999998Q12.7373,19.0702,12.7952,19.1785Q12.85309,19.2868,12.921330000000001,19.3889Q12.98956,19.491,13.06747,19.586Q13.145389999999999,19.6809,13.23223,19.7678Q13.31908,19.854599999999998,13.41402,19.932499999999997Q13.50896,20.0104,13.61107,20.078699999999998Q13.71319,20.146900000000002,13.82151,20.2048Q13.92982,20.262700000000002,14.043292,20.3097Q14.15676,20.3567,14.274288,20.392400000000002Q14.391817,20.428,14.512274,20.451999999999998Q14.632731,20.4759,14.754957,20.488Q14.877183,20.5,15,20.5Q15.122817,20.5,15.245043,20.488Q15.367269,20.4759,15.487726,20.451999999999998Q15.608183,20.428,15.725712,20.392400000000002Q15.84324,20.3567,15.956708,20.3097Q16.07018,20.262700000000002,16.17849,20.2048Q16.28681,20.146900000000002,16.38893,20.078699999999998Q16.491039999999998,20.0104,16.58598,19.932499999999997Q16.68092,19.854599999999998,16.76777,19.7678Q16.85461,19.6809,16.93253,19.586Q17.01044,19.491,17.07867,19.3889Q17.14691,19.2868,17.2048,19.1785Q17.2627,19.0702,17.3097,18.956699999999998Q17.3567,18.8432,17.39235,18.7257Q17.428,18.6082,17.45196,18.4877Q17.47592,18.3673,17.48796,18.244999999999997Q17.5,18.122799999999998,17.5,18L17.5,6Q17.5,5.877183,17.48796,5.754957Q17.47592,5.632731,17.45196,5.512274Q17.428,5.391817,17.39235,5.274288Q17.3567,5.15676,17.3097,5.043292Q17.2627,4.92982,17.2048,4.82151Q17.14691,4.71319,17.07867,4.61107Q17.01044,4.50896,16.93253,4.41402Q16.85461,4.31908,16.76777,4.2322299999999995Q16.68092,4.14539,16.58598,4.06747Q16.491039999999998,3.98956,16.38893,3.92133Q16.28681,3.85309,16.17849,3.7952Q16.07018,3.7373,15.956708,3.6903Q15.84324,3.6433,15.725712,3.60765Q15.608183,3.572,15.487726,3.54804Q15.367269,3.52408,15.245043,3.51204Q15.122817,3.5,15,3.5Q14.877183,3.5,14.754957,3.51204Q14.632731,3.52408,14.512274,3.54804Q14.391817,3.572,14.274288,3.60765Q14.15676,3.6433,14.043292,3.6903Q13.92982,3.7373,13.82151,3.7952Q13.71319,3.85309,13.61107,3.92133Q13.50896,3.98956,13.41402,4.06747Q13.31908,4.14539,13.23223,4.2322299999999995Q13.145389999999999,4.31908,13.06747,4.41402Q12.98956,4.50896,12.921330000000001,4.61107Q12.85309,4.71319,12.7952,4.82151Q12.7373,4.92982,12.6903,5.043292Q12.6433,5.15676,12.60765,5.274288Q12.572,5.391817,12.54804,5.512274Q12.52408,5.632731,12.512039999999999,5.754957Q12.5,5.877183,12.5,6Z" fill-rule="evenodd" fill="#FFFFFF" fill-opacity="1"/></g><g><path d="M23.5,2L23.5,22Q23.5,22.1228,23.51204,22.2451Q23.52408,22.3673,23.54804,22.4877Q23.572,22.6082,23.60765,22.7257Q23.6433,22.8433,23.6903,22.9567Q23.7373,23.0702,23.7952,23.1785Q23.85309,23.2868,23.92133,23.3889Q23.98956,23.4911,24.06747,23.586Q24.14539,23.6809,24.23223,23.7678Q24.31908,23.8546,24.41402,23.9325Q24.508960000000002,24.0105,24.61107,24.0787Q24.71319,24.1469,24.82151,24.2048Q24.92982,24.2627,25.043292,24.3097Q25.15676,24.3567,25.274288,24.3924Q25.391817,24.428,25.512274,24.452Q25.632731,24.4759,25.754957,24.488Q25.877183,24.5,26,24.5Q26.122817,24.5,26.245043,24.488Q26.367269,24.4759,26.487726,24.452Q26.608183,24.428,26.725712,24.3924Q26.84324,24.3567,26.956708,24.3097Q27.07018,24.2627,27.17849,24.2048Q27.28681,24.1469,27.38893,24.0787Q27.491039999999998,24.0105,27.58598,23.9325Q27.68092,23.8546,27.76777,23.7678Q27.85461,23.6809,27.93253,23.586Q28.01044,23.4911,28.07867,23.3889Q28.14691,23.2868,28.2048,23.1785Q28.2627,23.0702,28.3097,22.9567Q28.3567,22.8433,28.39235,22.7257Q28.428,22.6082,28.45196,22.4877Q28.47592,22.3673,28.48796,22.2451Q28.5,22.1228,28.5,22L28.5,2Q28.5,1.877183,28.48796,1.754957Q28.47592,1.632731,28.45196,1.5122740000000001Q28.428,1.391817,28.39235,1.2742879999999999Q28.3567,1.15676,28.3097,1.043292Q28.2627,0.9298200000000001,28.2048,0.82151Q28.14691,0.71319,28.07867,0.61107Q28.01044,0.5089600000000001,27.93253,0.41402000000000005Q27.85461,0.31908000000000003,27.76777,0.23222999999999994Q27.68092,0.1453899999999999,27.58598,0.06746999999999992Q27.491039999999998,-0.010440000000000005,27.38893,-0.0786699999999998Q27.28681,-0.1469100000000001,27.17849,-0.2048000000000001Q27.07018,-0.26270000000000016,26.956708,-0.30969999999999986Q26.84324,-0.3567,26.725712,-0.39235Q26.608183,-0.42799999999999994,26.487726,-0.45196000000000014Q26.367269,-0.4759199999999999,26.245043,-0.48796000000000017Q26.122817,-0.5,26,-0.5Q25.877183,-0.5,25.754957,-0.48796000000000017Q25.632731,-0.4759199999999999,25.512274,-0.45196000000000014Q25.391817,-0.42799999999999994,25.274288,-0.39235Q25.15676,-0.3567,25.043292,-0.30969999999999986Q24.92982,-0.26270000000000016,24.82151,-0.2048000000000001Q24.71319,-0.1469100000000001,24.61107,-0.0786699999999998Q24.508960000000002,-0.010440000000000005,24.41402,0.06746999999999992Q24.31908,0.1453899999999999,24.23223,0.23222999999999994Q24.14539,0.31908000000000003,24.06747,0.41402000000000005Q23.98956,0.5089600000000001,23.92133,0.61107Q23.85309,0.71319,23.7952,0.82151Q23.7373,0.9298200000000001,23.6903,1.043292Q23.6433,1.15676,23.60765,1.2742879999999999Q23.572,1.391817,23.54804,1.5122740000000001Q23.52408,1.632731,23.51204,1.754957Q23.5,1.877183,23.5,2Z" fill-rule="evenodd" fill="#FFFFFF" fill-opacity="1"/></g><g><path d="M34.5,6L34.5,18Q34.5,18.122799999999998,34.51204,18.244999999999997Q34.52408,18.3673,34.54804,18.4877Q34.572,18.6082,34.60765,18.7257Q34.643299999999996,18.8432,34.6903,18.956699999999998Q34.7373,19.0702,34.7952,19.1785Q34.85309,19.2868,34.92133,19.3889Q34.98956,19.491,35.06747,19.586Q35.14539,19.6809,35.23223,19.7678Q35.31908,19.854599999999998,35.41402,19.932499999999997Q35.50896,20.0104,35.61107,20.078699999999998Q35.71319,20.146900000000002,35.82151,20.2048Q35.92982,20.262700000000002,36.043292,20.3097Q36.15676,20.3567,36.274288,20.392400000000002Q36.391817,20.428,36.512274,20.451999999999998Q36.632731,20.4759,36.754957,20.488Q36.877183,20.5,37,20.5Q37.122817,20.5,37.245043,20.488Q37.367269,20.4759,37.487726,20.451999999999998Q37.608183,20.428,37.725712,20.392400000000002Q37.84324,20.3567,37.956708,20.3097Q38.07018,20.262700000000002,38.17849,20.2048Q38.28681,20.146900000000002,38.38893,20.078699999999998Q38.49104,20.0104,38.58598,19.932499999999997Q38.68092,19.854599999999998,38.76777,19.7678Q38.85461,19.6809,38.93253,19.586Q39.01044,19.491,39.07867,19.3889Q39.14691,19.2868,39.2048,19.1785Q39.2627,19.0702,39.3097,18.956699999999998Q39.356700000000004,18.8432,39.39235,18.7257Q39.428,18.6082,39.45196,18.4877Q39.47592,18.3673,39.48796,18.244999999999997Q39.5,18.122799999999998,39.5,18L39.5,6Q39.5,5.877183,39.48796,5.754957Q39.47592,5.632731,39.45196,5.512274Q39.428,5.391817,39.39235,5.274288Q39.356700000000004,5.15676,39.3097,5.043292Q39.2627,4.92982,39.2048,4.82151Q39.14691,4.71319,39.07867,4.61107Q39.01044,4.50896,38.93253,4.41402Q38.85461,4.31908,38.76777,4.2322299999999995Q38.68092,4.14539,38.58598,4.06747Q38.49104,3.98956,38.38893,3.92133Q38.28681,3.85309,38.17849,3.7952Q38.07018,3.7373,37.956708,3.6903Q37.84324,3.6433,37.725712,3.60765Q37.608183,3.572,37.487726,3.54804Q37.367269,3.52408,37.245043,3.51204Q37.122817,3.5,37,3.5Q36.877183,3.5,36.754957,3.51204Q36.632731,3.52408,36.512274,3.54804Q36.391817,3.572,36.274288,3.60765Q36.15676,3.6433,36.043292,3.6903Q35.92982,3.7373,35.82151,3.7952Q35.71319,3.85309,35.61107,3.92133Q35.50896,3.98956,35.41402,4.06747Q35.31908,4.14539,35.23223,4.2322299999999995Q35.14539,4.31908,35.06747,4.41402Q34.98956,4.50896,34.92133,4.61107Q34.85309,4.71319,34.7952,4.82151Q34.7373,4.92982,34.6903,5.043292Q34.643299999999996,5.15676,34.60765,5.274288Q34.572,5.391817,34.54804,5.512274Q34.52408,5.632731,34.51204,5.754957Q34.5,5.877183,34.5,6Z" fill-rule="evenodd" fill="#FFFFFF" fill-opacity="1"/></g><g><path d="M45.5,9L45.5,15Q45.5,15.12282,45.51204,15.24504Q45.52408,15.367270000000001,45.54804,15.48772Q45.572,15.60818,45.60765,15.72571Q45.643299999999996,15.84324,45.6903,15.956710000000001Q45.7373,16.07018,45.7952,16.17849Q45.85309,16.28681,45.92133,16.38892Q45.98956,16.491039999999998,46.06747,16.58598Q46.14539,16.68092,46.23223,16.76777Q46.31908,16.85461,46.41402,16.93253Q46.50896,17.01044,46.61107,17.078670000000002Q46.71319,17.14691,46.82151,17.2048Q46.92982,17.262700000000002,47.043292,17.3097Q47.15676,17.3567,47.274288,17.39235Q47.391817,17.428,47.512274,17.45196Q47.632731,17.475920000000002,47.754957,17.48796Q47.877183,17.5,48,17.5Q48.122817,17.5,48.245043,17.48796Q48.367269,17.475920000000002,48.487726,17.45196Q48.608183,17.428,48.725712,17.39235Q48.84324,17.3567,48.956708,17.3097Q49.07018,17.262700000000002,49.17849,17.2048Q49.28681,17.14691,49.38893,17.078670000000002Q49.49104,17.01044,49.58598,16.93253Q49.68092,16.85461,49.76777,16.76777Q49.85461,16.68092,49.93253,16.58598Q50.01044,16.491039999999998,50.07867,16.38892Q50.14691,16.28681,50.2048,16.17849Q50.2627,16.07018,50.3097,15.956710000000001Q50.356700000000004,15.84324,50.39235,15.72571Q50.428,15.60818,50.45196,15.487729999999999Q50.47592,15.367270000000001,50.48796,15.24504Q50.5,15.12282,50.5,15L50.5,9Q50.5,8.877183,50.48796,8.754957Q50.47592,8.632731,50.45196,8.512274Q50.428,8.391817,50.39235,8.274288Q50.356700000000004,8.15676,50.3097,8.043292Q50.2627,7.92982,50.2048,7.82151Q50.14691,7.71319,50.07867,7.61107Q50.01044,7.50896,49.93253,7.41402Q49.85461,7.31908,49.76777,7.2322299999999995Q49.68092,7.14539,49.58598,7.06747Q49.49104,6.98956,49.38893,6.92133Q49.28681,6.85309,49.17849,6.7951999999999995Q49.07018,6.737299999999999,48.956708,6.690300000000001Q48.84324,6.6433,48.725712,6.60765Q48.608183,6.572,48.487726,6.54804Q48.367269,6.52408,48.245043,6.51204Q48.122817,6.5,48,6.5Q47.877183,6.5,47.754957,6.51204Q47.632731,6.52408,47.512274,6.54804Q47.391817,6.572,47.274288,6.60765Q47.15676,6.6433,47.043292,6.690300000000001Q46.92982,6.737299999999999,46.82151,6.7951999999999995Q46.71319,6.85309,46.61107,6.92133Q46.50896,6.98956,46.41402,7.06747Q46.31908,7.14539,46.23223,7.2322299999999995Q46.14539,7.31908,46.06747,7.41402Q45.98956,7.50896,45.92133,7.61107Q45.85309,7.71319,45.7952,7.82151Q45.7373,7.92982,45.6903,8.043292Q45.643299999999996,8.15676,45.60765,8.274288Q45.572,8.391817,45.54804,8.512274Q45.52408,8.632731,45.51204,8.754957Q45.5,8.877183,45.5,9Z" fill-rule="evenodd" fill="#FFFFFF" fill-opacity="1"/></g><g><path d="M56.5,2L56.5,22Q56.5,22.1228,56.51204,22.2451Q56.52408,22.3673,56.54804,22.4877Q56.572,22.6082,56.60765,22.7257Q56.643299999999996,22.8433,56.6903,22.9567Q56.7373,23.0702,56.7952,23.1785Q56.85309,23.2868,56.92133,23.3889Q56.98956,23.4911,57.06747,23.586Q57.14539,23.6809,57.23223,23.7678Q57.31908,23.8546,57.41402,23.9325Q57.50896,24.0105,57.61107,24.0787Q57.71319,24.1469,57.82151,24.2048Q57.92982,24.2627,58.043292,24.3097Q58.15676,24.3567,58.274288,24.3924Q58.391817,24.428,58.512274,24.452Q58.632731,24.4759,58.754957,24.488Q58.877183,24.5,59,24.5Q59.122817,24.5,59.245043,24.488Q59.367269,24.4759,59.487726,24.452Q59.608183,24.428,59.725712,24.3924Q59.84324,24.3567,59.956708,24.3097Q60.07018,24.2627,60.17849,24.2048Q60.28681,24.1469,60.38893,24.0787Q60.49104,24.0105,60.58598,23.9325Q60.68092,23.8546,60.76777,23.7678Q60.85461,23.6809,60.93253,23.586Q61.01044,23.4911,61.07867,23.3889Q61.14691,23.2868,61.2048,23.1785Q61.2627,23.0702,61.3097,22.9567Q61.356700000000004,22.8433,61.39235,22.7257Q61.428,22.6082,61.45196,22.4877Q61.47592,22.3673,61.48796,22.2451Q61.5,22.1228,61.5,22L61.5,2Q61.5,1.877183,61.48796,1.754957Q61.47592,1.632731,61.45196,1.5122740000000001Q61.428,1.391817,61.39235,1.2742879999999999Q61.356700000000004,1.15676,61.3097,1.043292Q61.2627,0.9298200000000001,61.2048,0.82151Q61.14691,0.71319,61.07867,0.61107Q61.01044,0.5089600000000001,60.93253,0.41402000000000005Q60.85461,0.31908000000000003,60.76777,0.23222999999999994Q60.68092,0.1453899999999999,60.58598,0.06746999999999992Q60.49104,-0.010440000000000005,60.38893,-0.0786699999999998Q60.28681,-0.1469100000000001,60.17849,-0.2048000000000001Q60.07018,-0.26270000000000016,59.956708,-0.30969999999999986Q59.84324,-0.3567,59.725712,-0.39235Q59.608183,-0.42799999999999994,59.487726,-0.45196000000000014Q59.367269,-0.4759199999999999,59.245043,-0.48796000000000017Q59.122817,-0.5,59,-0.5Q58.877183,-0.5,58.754957,-0.48796000000000017Q58.632731,-0.4759199999999999,58.512274,-0.45196000000000014Q58.391817,-0.42799999999999994,58.274288,-0.39235Q58.15676,-0.3567,58.043292,-0.30969999999999986Q57.92982,-0.26270000000000016,57.82151,-0.2048000000000001Q57.71319,-0.1469100000000001,57.61107,-0.0786699999999998Q57.50896,-0.010440000000000005,57.41402,0.06746999999999992Q57.31908,0.1453899999999999,57.23223,0.23222999999999994Q57.14539,0.31908000000000003,57.06747,0.41402000000000005Q56.98956,0.5089600000000001,56.92133,0.61107Q56.85309,0.71319,56.7952,0.82151Q56.7373,0.9298200000000001,56.6903,1.043292Q56.643299999999996,1.15676,56.60765,1.2742879999999999Q56.572,1.391817,56.54804,1.5122740000000001Q56.52408,1.632731,56.51204,1.754957Q56.5,1.877183,56.5,2Z" fill-rule="evenodd" fill="#FFFFFF" fill-opacity="1"/></g><g><path d="M67.5,6L67.5,18Q67.5,18.122799999999998,67.51204,18.244999999999997Q67.52408,18.3673,67.54804,18.4877Q67.572,18.6082,67.60765,18.7257Q67.6433,18.8432,67.6903,18.956699999999998Q67.7373,19.0702,67.7952,19.1785Q67.85309,19.2868,67.92133,19.3889Q67.98956,19.491,68.06747,19.586Q68.14539,19.6809,68.23223,19.7678Q68.31908,19.854599999999998,68.41402,19.932499999999997Q68.50896,20.0104,68.61107,20.078699999999998Q68.71319,20.146900000000002,68.82151,20.2048Q68.92982,20.262700000000002,69.043292,20.3097Q69.15676,20.3567,69.274288,20.392400000000002Q69.391817,20.428,69.512274,20.451999999999998Q69.632731,20.4759,69.754957,20.488Q69.877183,20.5,70,20.5Q70.122817,20.5,70.245043,20.488Q70.367269,20.4759,70.487726,20.451999999999998Q70.608183,20.428,70.725712,20.392400000000002Q70.84324,20.3567,70.956708,20.3097Q71.07018,20.262700000000002,71.17849,20.2048Q71.28681,20.146900000000002,71.38893,20.078699999999998Q71.49104,20.0104,71.58598,19.932499999999997Q71.68092,19.854599999999998,71.76777,19.7678Q71.85461,19.6809,71.93253,19.586Q72.01044,19.491,72.07867,19.3889Q72.14691,19.2868,72.2048,19.1785Q72.2627,19.0702,72.3097,18.956699999999998Q72.3567,18.8432,72.39235,18.7257Q72.428,18.6082,72.45196,18.4877Q72.47592,18.3673,72.48796,18.244999999999997Q72.5,18.122799999999998,72.5,18L72.5,6Q72.5,5.877183,72.48796,5.754957Q72.47592,5.632731,72.45196,5.512274Q72.428,5.391817,72.39235,5.274288Q72.3567,5.15676,72.3097,5.043292Q72.2627,4.92982,72.2048,4.82151Q72.14691,4.71319,72.07867,4.61107Q72.01044,4.50896,71.93253,4.41402Q71.85461,4.31908,71.76777,4.2322299999999995Q71.68092,4.14539,71.58598,4.06747Q71.49104,3.98956,71.38893,3.92133Q71.28681,3.85309,71.17849,3.7952Q71.07018,3.7373,70.956708,3.6903Q70.84324,3.6433,70.725712,3.60765Q70.608183,3.572,70.487726,3.54804Q70.367269,3.52408,70.245043,3.51204Q70.122817,3.5,70,3.5Q69.877183,3.5,69.754957,3.51204Q69.632731,3.52408,69.512274,3.54804Q69.391817,3.572,69.274288,3.60765Q69.15676,3.6433,69.043292,3.6903Q68.92982,3.7373,68.82151,3.7952Q68.71319,3.85309,68.61107,3.92133Q68.50896,3.98956,68.41402,4.06747Q68.31908,4.14539,68.23223,4.2322299999999995Q68.14539,4.31908,68.06747,4.41402Q67.98956,4.50896,67.92133,4.61107Q67.85309,4.71319,67.7952,4.82151Q67.7373,4.92982,67.6903,5.043292Q67.6433,5.15676,67.60765,5.274288Q67.572,5.391817,67.54804,5.512274Q67.52408,5.632731,67.51204,5.754957Q67.5,5.877183,67.5,6Z" fill-rule="evenodd" fill="#FFFFFF" fill-opacity="1"/></g><g><path d="M78.5,9L78.5,15Q78.5,15.12282,78.51204,15.24504Q78.52408,15.367270000000001,78.54804,15.48772Q78.572,15.60818,78.60765,15.72571Q78.6433,15.84324,78.6903,15.956710000000001Q78.7373,16.07018,78.7952,16.17849Q78.85309,16.28681,78.92133,16.38892Q78.98956,16.491039999999998,79.06747,16.58598Q79.14539,16.68092,79.23223,16.76777Q79.31908,16.85461,79.41402,16.93253Q79.50896,17.01044,79.61107,17.078670000000002Q79.71319,17.14691,79.82151,17.2048Q79.92982,17.262700000000002,80.043292,17.3097Q80.15676,17.3567,80.274288,17.39235Q80.391817,17.428,80.512274,17.45196Q80.632731,17.475920000000002,80.754957,17.48796Q80.877183,17.5,81,17.5Q81.122817,17.5,81.245043,17.48796Q81.367269,17.475920000000002,81.487726,17.45196Q81.608183,17.428,81.725712,17.39235Q81.84324,17.3567,81.956708,17.3097Q82.07018,17.262700000000002,82.17849,17.2048Q82.28681,17.14691,82.38893,17.078670000000002Q82.49104,17.01044,82.58598,16.93253Q82.68092,16.85461,82.76777,16.76777Q82.85461,16.68092,82.93253,16.58598Q83.01044,16.491039999999998,83.07867,16.38892Q83.14691,16.28681,83.2048,16.17849Q83.2627,16.07018,83.3097,15.956710000000001Q83.3567,15.84324,83.39235,15.72571Q83.428,15.60818,83.45196,15.487729999999999Q83.47592,15.367270000000001,83.48796,15.24504Q83.5,15.12282,83.5,15L83.5,9Q83.5,8.877183,83.48796,8.754957Q83.47592,8.632731,83.45196,8.512274Q83.428,8.391817,83.39235,8.274288Q83.3567,8.15676,83.3097,8.043292Q83.2627,7.92982,83.2048,7.82151Q83.14691,7.71319,83.07867,7.61107Q83.01044,7.50896,82.93253,7.41402Q82.85461,7.31908,82.76777,7.2322299999999995Q82.68092,7.14539,82.58598,7.06747Q82.49104,6.98956,82.38893,6.92133Q82.28681,6.85309,82.17849,6.7951999999999995Q82.07018,6.737299999999999,81.956708,6.690300000000001Q81.84324,6.6433,81.725712,6.60765Q81.608183,6.572,81.487726,6.54804Q81.367269,6.52408,81.245043,6.51204Q81.122817,6.5,81,6.5Q80.877183,6.5,80.754957,6.51204Q80.632731,6.52408,80.512274,6.54804Q80.391817,6.572,80.274288,6.60765Q80.15676,6.6433,80.043292,6.690300000000001Q79.92982,6.737299999999999,79.82151,6.7951999999999995Q79.71319,6.85309,79.61107,6.92133Q79.50896,6.98956,79.41402,7.06747Q79.31908,7.14539,79.23223,7.2322299999999995Q79.14539,7.31908,79.06747,7.41402Q78.98956,7.50896,78.92133,7.61107Q78.85309,7.71319,78.7952,7.82151Q78.7373,7.92982,78.6903,8.043292Q78.6433,8.15676,78.60765,8.274288Q78.572,8.391817,78.54804,8.512274Q78.52408,8.632731,78.51204,8.754957Q78.5,8.877183,78.5,9Z" fill-rule="evenodd" fill="#FFFFFF" fill-opacity="1"/></g></g></svg>