<svg xmlns="http://www.w3.org/2000/svg" xmlns:xlink="http://www.w3.org/1999/xlink" fill="none" version="1.1" width="24" height="24" viewBox="0 0 24 24"><defs><clipPath id="master_svg0_1_1682"><rect x="0" y="0" width="24" height="24" rx="0"/></clipPath></defs><g clip-path="url(#master_svg0_1_1682)"><g><rect x="0" y="0" width="24" height="24" rx="0" fill="#FFFFFF" fill-opacity="0.009999999776482582"/></g><g><path d="M1,16.5L1,7.5Q1,7.4015086,1.019215,7.30491Q1.03843,7.208311,1.076121,7.117317Q1.113812,7.026322,1.16853,6.94443Q1.223249,6.862537,1.2928929999999998,6.792893Q1.362537,6.723249,1.44443,6.66853Q1.526322,6.613812,1.617317,6.576121Q1.7083110000000001,6.53843,1.80491,6.519215Q1.9015086,6.5,2,6.5L7.5,6.5Q7.59849,6.5,7.69509,6.519215Q7.79169,6.53843,7.88268,6.576121Q7.97368,6.613812,8.05557,6.66853Q8.13746,6.723249,8.20711,6.792893Q8.27675,6.862537,8.33147,6.94443Q8.38619,7.026322,8.42388,7.117317Q8.46157,7.208311,8.48078,7.30491Q8.5,7.4015086,8.5,7.5L8.5,16.5Q8.5,16.598489999999998,8.48078,16.69509Q8.46157,16.79169,8.42388,16.88268Q8.38619,16.97368,8.33147,17.05557Q8.27675,17.13746,8.20711,17.20711Q8.13746,17.27675,8.05557,17.33147Q7.97368,17.38619,7.88268,17.42388Q7.79169,17.461570000000002,7.69509,17.48078Q7.59849,17.5,7.5,17.5L2,17.5Q1.9015086,17.5,1.80491,17.48078Q1.7083110000000001,17.461570000000002,1.617317,17.42388Q1.526322,17.38619,1.44443,17.33147Q1.362537,17.27675,1.2928929999999998,17.20711Q1.223249,17.13746,1.16853,17.05557Q1.113812,16.97368,1.076121,16.88268Q1.03843,16.79169,1.019215,16.69509Q1,16.598489999999998,1,16.5ZM3,8.5L3,15.5L6.5,15.5L6.5,8.5L3,8.5Z" fill="#DD88CF" fill-opacity="1"/></g><g><path d="M15.5,18.5382L7.862446,15.568Q7.687602,15.5,7.500000983014,15.5L7.49393229,15.5Q7.41918,15.5005,7.345326,15.512Q7.271472,15.5236,7.200158,15.546Q7.128844,15.5684,7.061655,15.6012Q6.994466,15.634,6.932895,15.6764Q6.871325,15.7187,6.816741,15.7698Q6.762158,15.8209,6.715775,15.8795Q6.669392,15.9381,6.6322410000000005,16.003Q6.595089,16.0679,6.567995,16.1376Q6.5,16.3124,6.5,16.5Q6.5,16.5109,6.5002379999999995,16.5218Q6.504575,16.7207,6.584685,16.9027Q6.664795,17.0848,6.8084810000000004,17.2224Q6.952167,17.3599,7.137554,17.432000000000002L16.137549999999997,20.932Q16.22935,20.9677,16.326340000000002,20.9848Q16.42334,21.0019,16.521810000000002,20.9998Q16.620269999999998,20.9976,16.716430000000003,20.9763Q16.81259,20.955,16.90274,20.9153Q16.99289,20.8756,17.07357,20.8192Q17.154249999999998,20.7627,17.222360000000002,20.6915Q17.29047,20.6204,17.34339,20.5373Q17.39631,20.4542,17.432000000000002,20.3624Q17.5,20.1876,17.5,20L17.5,4Q17.5,3.9015086,17.48078,3.80491Q17.461570000000002,3.708311,17.42388,3.617317Q17.38619,3.526322,17.33147,3.44443Q17.27675,3.362537,17.20711,3.292893Q17.13746,3.223249,17.05557,3.16853Q16.97368,3.1138120000000002,16.88268,3.076121Q16.79169,3.03843,16.69509,3.019215Q16.598489999999998,3,16.5,3Q16.3124,3,16.137549999999997,3.067995L7.137554,6.568Q6.952166,6.64009,6.8084810000000004,6.77764Q6.664795,6.91519,6.584685,7.09726Q6.5,7.2897300000000005,6.5,7.5L6.500005,7.50306Q6.500573,7.68907,6.567995,7.86245Q6.595228,7.93247,6.632618,7.9976400000000005Q6.670008,8.062809999999999,6.716717,8.12167Q6.763426,8.18052,6.818405,8.231729999999999Q6.8733830000000005,8.28294,6.935397,8.32536Q6.99741,8.36778,7.065067,8.400459999999999Q7.132723,8.43314,7.204502,8.45534Q7.276282,8.47755,7.350574,8.488769999999999Q7.424865,8.5,7.5,8.5Q7.50934573,8.5,7.5186898,8.49983Q7.696602,8.496500000000001,7.862446,8.432L15.5,5.4618400000000005L15.5,18.5382Z" fill-rule="evenodd" fill="#DD88CF" fill-opacity="1"/></g><g><path d="M19,8.5Q19,8.5984914,19.019215,8.69509Q19.038429999999998,8.791689,19.076121,8.882683Q19.113812,8.973678,19.16853,9.05557Q19.223249,9.137463,19.292893,9.207107Q19.362537,9.276751,19.44443,9.33147Q19.526322,9.386188,19.617317,9.423879Q19.708311,9.46157,19.80491,9.480785000000001Q19.9015086,9.5,20,9.5L21,9.5Q21.098489999999998,9.5,21.19509,9.480785000000001Q21.29169,9.46157,21.38268,9.423879Q21.47368,9.386188,21.55557,9.33147Q21.63746,9.276751,21.70711,9.207107Q21.77675,9.137463,21.83147,9.05557Q21.88619,8.973678,21.92388,8.882683Q21.961570000000002,8.791689,21.98079,8.69509Q22,8.5984914,22,8.5Q22,8.4015086,21.98079,8.30491Q21.961570000000002,8.208311,21.92388,8.117317Q21.88619,8.026322,21.83147,7.94443Q21.77675,7.862537,21.70711,7.792893Q21.63746,7.723249,21.55557,7.66853Q21.47368,7.613812,21.38268,7.576121Q21.29169,7.53843,21.19509,7.519215Q21.098489999999998,7.5,21,7.5L20,7.5Q19.9015086,7.5,19.80491,7.519215Q19.708311,7.53843,19.617317,7.576121Q19.526322,7.613812,19.44443,7.66853Q19.362537,7.723249,19.292893,7.792893Q19.223249,7.862537,19.16853,7.94443Q19.113812,8.026322,19.076121,8.117317Q19.038429999999998,8.208311,19.019215,8.30491Q19,8.4015086,19,8.5Z" fill-rule="evenodd" fill="#DD88CF" fill-opacity="1"/></g><g><path d="M19.5,13.5L22,13.5Q22.098489999999998,13.5,22.19509,13.480785000000001Q22.29169,13.46157,22.38268,13.423879Q22.47368,13.386188,22.55557,13.33147Q22.63746,13.276751,22.70711,13.207107Q22.77675,13.137463,22.83147,13.05557Q22.88619,12.973678,22.92388,12.882683Q22.961570000000002,12.791689,22.98078,12.69509Q23,12.5984914,23,12.5Q23,12.4015086,22.98078,12.30491Q22.961570000000002,12.208311,22.92388,12.117317Q22.88619,12.026322,22.83147,11.94443Q22.77675,11.862537,22.70711,11.792893Q22.63746,11.723249,22.55557,11.66853Q22.47368,11.613812,22.38268,11.576121Q22.29169,11.53843,22.19509,11.519214999999999Q22.098489999999998,11.5,22,11.5L19.5,11.5Q19.4015086,11.5,19.30491,11.519214999999999Q19.208311,11.53843,19.117317,11.576121Q19.026322,11.613812,18.94443,11.66853Q18.862537,11.723249,18.792893,11.792893Q18.723249,11.862537,18.66853,11.94443Q18.613812,12.026322,18.576121,12.117317Q18.538429999999998,12.208311,18.519215,12.30491Q18.5,12.4015086,18.5,12.5Q18.5,12.5984914,18.519215,12.69509Q18.538429999999998,12.791689,18.576121,12.882683Q18.613812,12.973678,18.66853,13.05557Q18.723249,13.137463,18.792893,13.207107Q18.862537,13.276751,18.94443,13.33147Q19.026322,13.386188,19.117317,13.423879Q19.208311,13.46157,19.30491,13.480785000000001Q19.4015086,13.5,19.5,13.5Z" fill-rule="evenodd" fill="#DD88CF" fill-opacity="1"/></g><g><path d="M19,16.5Q19,16.5984914,19.019215,16.69509Q19.038429999999998,16.791689,19.076121,16.882683Q19.113812,16.973678,19.16853,17.05557Q19.223249,17.137463,19.292893,17.207107Q19.362537,17.276751,19.44443,17.33147Q19.526322,17.386188,19.617317,17.423879Q19.708311,17.461570000000002,19.80491,17.480785Q19.9015086,17.5,20,17.5L21,17.5Q21.098489999999998,17.5,21.19509,17.480785Q21.29169,17.461570000000002,21.38268,17.423879Q21.47368,17.386188,21.55557,17.33147Q21.63746,17.276751,21.70711,17.207107Q21.77675,17.137463,21.83147,17.05557Q21.88619,16.973678,21.92388,16.882683Q21.961570000000002,16.791689,21.98079,16.69509Q22,16.5984914,22,16.5Q22,16.4015086,21.98079,16.30491Q21.961570000000002,16.208311,21.92388,16.117317Q21.88619,16.026322,21.83147,15.94443Q21.77675,15.862537,21.70711,15.792893Q21.63746,15.723249,21.55557,15.66853Q21.47368,15.613812,21.38268,15.576121Q21.29169,15.53843,21.19509,15.519214999999999Q21.098489999999998,15.5,21,15.5L20,15.5Q19.9015086,15.5,19.80491,15.519214999999999Q19.708311,15.53843,19.617317,15.576121Q19.526322,15.613812,19.44443,15.66853Q19.362537,15.723249,19.292893,15.792893Q19.223249,15.862537,19.16853,15.94443Q19.113812,16.026322,19.076121,16.117317Q19.038429999999998,16.208311,19.019215,16.30491Q19,16.4015086,19,16.5Z" fill-rule="evenodd" fill="#DD88CF" fill-opacity="1"/></g></g></svg>