<svg xmlns="http://www.w3.org/2000/svg" xmlns:xlink="http://www.w3.org/1999/xlink" fill="none" version="1.1" width="24" height="24" viewBox="0 0 24 24"><defs><clipPath id="master_svg0_1_5862/1_3340"><rect x="0" y="0" width="24" height="24" rx="0"/></clipPath></defs><g clip-path="url(#master_svg0_1_5862/1_3340)"><g></g><g><path d="M15.70673,6.707482L15.70711,6.707107Q15.847760000000001,6.566455,15.92388,6.382683Q16,6.198912,16,6Q16,5.801088,15.92388,5.617317Q15.847760000000001,5.433545,15.70711,5.292893L15.70653,5.292322Q15.70253,5.28832,15.69847,5.284365L15.6979,5.2838Q15.557839999999999,5.147326,15.3767,5.073663Q15.19555,5,15,5Q14.954979999999999,5,14.91015,5.004045Q14.73523,5.019826,14.57615,5.094266Q14.41708,5.168705,14.29289,5.292893L14.29252,5.293268L8.292893,11.29289Q8.152241,11.43355,8.07612,11.61732Q8,11.80109,8,12Q8,12.19891,8.07612,12.38268Q8.152241,12.56645,8.292893,12.70711L14.29289,18.7071Q14.43355,18.8478,14.61732,18.9239Q14.80109,19,15,19Q15.19891,19,15.38268,18.9239Q15.56645,18.8478,15.70711,18.7071Q15.847760000000001,18.566499999999998,15.92388,18.3827Q16,18.198900000000002,16,18Q16,17.801099999999998,15.92388,17.6173Q15.847760000000001,17.433500000000002,15.70711,17.2929L10.41421,12L15.70673,6.707482Z" fill-rule="evenodd" fill="#FFFFFF" fill-opacity="1"/></g></g></svg>