<svg xmlns="http://www.w3.org/2000/svg" xmlns:xlink="http://www.w3.org/1999/xlink" fill="none" version="1.1" width="24" height="24" viewBox="0 0 24 24"><defs><clipPath id="master_svg0_1_0810"><rect x="0" y="0" width="24" height="24" rx="0"/></clipPath></defs><g clip-path="url(#master_svg0_1_0810)"><g></g><g><path d="M13.58579,12L8.293268,17.2925L8.292893,17.2929Q8.152241,17.433500000000002,8.076121,17.6173Q8,17.801099999999998,8,18Q8,18.024,8.001154,18.048000000000002Q8.010111,18.234299999999998,8.085581,18.4048Q8.161051,18.5753,8.292893,18.7071Q8.433545,18.8478,8.617317,18.9239Q8.801088,19,9,19Q9.198912,19,9.382683,18.9239Q9.566455,18.8478,9.707107,18.7071L9.707482,18.706699999999998L15.70711,12.70711Q15.847760000000001,12.56645,15.92388,12.38268Q16,12.19891,16,12Q16,11.80109,15.92388,11.61732Q15.847760000000001,11.43355,15.70711,11.29289L9.707226,5.293012L9.707107,5.292893Q9.566455,5.152241,9.382683,5.0761199999999995Q9.198912,5,9,5Q8.801088,5,8.617317,5.0761199999999995Q8.433545,5.152241,8.292893,5.292893Q8.152241,5.433545,8.07612,5.617317Q8,5.801088,8,6Q8,6.198912,8.07612,6.382683Q8.152241,6.566455,8.292893,6.707107L8.293012000000001,6.707226L13.58579,12Z" fill-rule="evenodd" fill="#9EA3AE" fill-opacity="1"/></g></g></svg>