<svg xmlns="http://www.w3.org/2000/svg" xmlns:xlink="http://www.w3.org/1999/xlink" fill="none" version="1.1" width="24" height="24" viewBox="0 0 24 24"><defs><clipPath id="master_svg0_1_0457/1_0391"><rect x="0" y="0" width="24" height="24" rx="0"/></clipPath></defs><g clip-path="url(#master_svg0_1_0457/1_0391)"><g><path d="M11.999836921691895,15.000020503997803Q13.656686921691895,15.000020503997803,14.828266921691895,13.828420503997803Q15.999836921691895,12.656920503997803,15.999836921691895,11.000020503997803L15.999836921691895,5.000020503997803Q15.999836921691895,3.3431605039978027,14.828266921691895,2.1715935039978027Q13.656696921691895,1.0000205039978027,11.999836921691895,1.0000205039978027Q10.342986921691894,1.0000205039978027,9.171406921691894,2.1715935039978027Q7.9998369216918945,3.3431605039978027,7.9998369216918945,5.000020503997803L7.9998369216918945,11.000020503997803Q7.9998369216918945,12.656920503997803,9.171406921691894,13.828420503997803Q10.342976921691895,15.000020503997803,11.999836921691895,15.000020503997803ZM13.999836921691895,11.000020503997803Q13.999836921691895,11.828450503997804,13.414046921691895,12.414220503997802Q12.828266921691895,13.000020503997803,11.999836921691895,13.000020503997803Q11.171406921691894,13.000020503997803,10.585626921691894,12.414220503997802Q9.999836921691895,11.828450503997804,9.999836921691895,11.000020503997803L9.999836921691895,5.000020503997803Q9.999836921691895,4.171590503997803,10.585626921691894,3.585810503997803Q11.171406921691894,3.0000205039978027,11.999836921691895,3.0000205039978027Q12.828266921691895,3.0000205039978027,13.414046921691895,3.585810503997803Q13.999836921691895,4.171590503997803,13.999836921691895,5.000020503997803L13.999836921691895,11.000020503997803ZM7.757196921691895,15.242620503997802Q5.9998369216918945,13.485320503997803,5.9998369216918945,11.000020503997803Q5.9998369216918945,10.901530503997803,5.9806219216918945,10.804930503997802Q5.961406921691895,10.708330503997804,5.923715921691895,10.617340503997802Q5.886024921691894,10.526340503997803,5.831306921691895,10.444450503997803Q5.7765879216918945,10.362560503997802,5.706943921691894,10.292910503997803Q5.637299921691895,10.223270503997803,5.555406921691895,10.168550503997803Q5.473514921691894,10.113830503997804,5.382519921691895,10.076140503997802Q5.291525921691894,10.038450503997803,5.194926921691895,10.019230503997802Q5.098328321691895,10.000020503997803,4.9998369216918945,10.000020503997803Q4.901345521691894,10.000020503997803,4.804746921691894,10.019230503997802Q4.708147921691895,10.038450503997803,4.617153921691894,10.076140503997802Q4.526158921691895,10.113830503997804,4.444266921691894,10.168550503997803Q4.362373921691894,10.223270503997803,4.292729921691895,10.292910503997803Q4.223085921691895,10.362560503997802,4.168366921691894,10.444450503997803Q4.113648921691895,10.526340503997803,4.075957921691894,10.617340503997802Q4.0382669216918945,10.708330503997804,4.0190519216918945,10.804930503997802Q3.9998369216918945,10.901530503997803,3.9998369216918945,11.000020503997803Q3.9998369216918945,12.591320503997803,4.608800921691895,14.061520503997803Q5.217763921691895,15.531620503997802,6.342986921691894,16.656920503997803Q7.468206921691895,17.782120503997803,8.938366921691895,18.3910205039978Q9.940946921691895,18.806320503997803,10.999836921691895,18.938420503997804L10.999836921691895,21.000020503997803L7.9998369216918945,21.000020503997803Q7.901346921691895,21.000020503997803,7.804746921691894,21.019220503997804Q7.7081469216918945,21.038420503997802,7.617156921691894,21.076120503997803Q7.526156921691895,21.113820503997804,7.444266921691895,21.168520503997804Q7.362376921691895,21.2232205039978,7.292726921691894,21.292920503997802Q7.223086921691895,21.362520503997803,7.168366921691895,21.444420503997804Q7.1136469216918945,21.526320503997802,7.075956921691894,21.617320503997803Q7.0382669216918945,21.708320503997804,7.019046921691895,21.804920503997803Q6.9998369216918945,21.9015205039978,6.9998369216918945,22.000020503997803Q6.9998369216918945,22.098520503997804,7.019046921691895,22.195120503997803Q7.0382669216918945,22.2917205039978,7.075956921691894,22.382720503997803Q7.1136469216918945,22.473720503997804,7.168366921691895,22.5556205039978Q7.223086921691895,22.637520503997802,7.292726921691894,22.707120503997803Q7.362376921691895,22.776720503997804,7.444266921691895,22.8315205039978Q7.526156921691895,22.8862205039978,7.617156921691894,22.923920503997802Q7.7081469216918945,22.961620503997803,7.804746921691894,22.9808205039978Q7.901346921691895,23.000020503997803,7.9998369216918945,23.000020503997803L15.999836921691895,23.000020503997803Q16.098336921691896,23.000020503997803,16.194936921691895,22.9808205039978Q16.291536921691893,22.961620503997803,16.382536921691894,22.923920503997802Q16.473536921691895,22.8862205039978,16.555436921691893,22.8315205039978Q16.637336921691894,22.776720503997804,16.706936921691895,22.707120503997803Q16.776536921691893,22.637520503997802,16.831336921691893,22.5556205039978Q16.886036921691897,22.473720503997804,16.923736921691894,22.382720503997803Q16.961436921691895,22.2917205039978,16.980636921691897,22.195120503997803Q16.999836921691895,22.098520503997804,16.999836921691895,22.000020503997803Q16.999836921691895,21.9015205039978,16.980636921691897,21.804920503997803Q16.961436921691895,21.708320503997804,16.923736921691894,21.617320503997803Q16.886036921691897,21.526320503997802,16.831336921691893,21.444420503997804Q16.776536921691893,21.362520503997803,16.706936921691895,21.292920503997802Q16.637336921691894,21.2232205039978,16.555436921691893,21.168520503997804Q16.473536921691895,21.113820503997804,16.382536921691894,21.076120503997803Q16.291536921691893,21.038420503997802,16.194936921691895,21.019220503997804Q16.098336921691896,21.000020503997803,15.999836921691895,21.000020503997803L12.999836921691895,21.000020503997803L12.999836921691895,18.938420503997804Q14.058736921691894,18.806320503997803,15.061336921691895,18.3910205039978Q16.531436921691892,17.782120503997803,17.656736921691895,16.656920503997803Q18.781936921691894,15.531620503997802,19.390836921691893,14.061520503997803Q19.999836921691895,12.591320503997803,19.999836921691895,11.000020503997803Q19.999836921691895,10.901530503997803,19.980636921691897,10.804930503997802Q19.961436921691895,10.708330503997804,19.923736921691894,10.617340503997802Q19.886036921691897,10.526340503997803,19.831336921691893,10.444450503997803Q19.776536921691893,10.362560503997802,19.706936921691895,10.292910503997803Q19.637336921691894,10.223270503997803,19.555436921691893,10.168550503997803Q19.473536921691895,10.113830503997804,19.382536921691894,10.076140503997802Q19.291536921691893,10.038450503997803,19.194936921691895,10.019230503997802Q19.098336921691896,10.000020503997803,18.999836921691895,10.000020503997803Q18.901336921691893,10.000020503997803,18.804736921691894,10.019230503997802Q18.708136921691896,10.038450503997803,18.617136921691895,10.076140503997802Q18.526136921691894,10.113830503997804,18.444236921691896,10.168550503997803Q18.362336921691895,10.223270503997803,18.292736921691894,10.292910503997803Q18.223036921691893,10.362560503997802,18.168336921691896,10.444450503997803Q18.113636921691892,10.526340503997803,18.075936921691895,10.617340503997802Q18.038236921691894,10.708330503997804,18.019036921691892,10.804930503997802Q17.999836921691895,10.901530503997803,17.999836921691895,11.000020503997803Q17.999836921691895,13.485320503997803,16.242436921691894,15.242620503997802Q14.485116921691894,17.000020503997803,11.999836921691895,17.000020503997803Q9.514556921691895,17.000020503997803,7.757196921691895,15.242620503997802Z" fill-rule="evenodd" fill="#FFFFFF" fill-opacity="1"/></g></g></svg>