<svg xmlns="http://www.w3.org/2000/svg" xmlns:xlink="http://www.w3.org/1999/xlink" fill="none" version="1.1" width="24" height="24" viewBox="0 0 24 24"><defs><clipPath id="master_svg0_1_1666"><rect x="0" y="0" width="24" height="24" rx="0"/></clipPath></defs><g clip-path="url(#master_svg0_1_1666)"><g><rect x="0" y="0" width="24" height="24" rx="0" fill="#FFFFFF" fill-opacity="0.009999999776482582"/></g><g><path d="M1.746971,6.80187Q1,8.5679,1,10.5Q1,12.4321,1.746971,14.1981Q2.468138,15.9032,3.78249,17.2175Q5.09685,18.5319,6.80187,19.253Q8.5679,20,10.5,20Q12.4321,20,14.1981,19.253Q15.9032,18.5319,17.2175,17.2175Q18.5319,15.9031,19.253,14.1981Q20,12.4321,20,10.5Q20,8.5679,19.253,6.80187Q18.5319,5.09685,17.2175,3.78249Q15.9032,2.468138,14.1981,1.746971Q12.4321,1,10.5,1Q8.5679,1,6.80187,1.746971Q5.09685,2.468139,3.78249,3.78249Q2.468138,5.09685,1.746971,6.80187ZM5.1967099999999995,15.8033Q3,13.6066,3,10.5Q3,7.39341,5.1967099999999995,5.1967099999999995Q7.39341,3,10.5,3Q13.6066,3,15.8033,5.1967099999999995Q18,7.39341,18,10.5Q18,13.6066,15.8033,15.8033Q13.6066,18,10.5,18Q7.39341,18,5.1967099999999995,15.8033Z" fill-rule="evenodd" fill="#333333" fill-opacity="1"/></g><g><path d="M6.96505382421875,6.463853L6.96448782421875,6.464419Q6.82383082421875,6.605066,6.74770382421875,6.788834Q6.67157682421875,6.972603,6.67156982421875,7.17152L6.67156982421875,7.17155Q6.67156982421875,7.19556,6.67272282421875,7.21955Q6.68167282421875,7.40579,6.75713682421875,7.57629Q6.83260182421875,7.74679,6.96443882421875,7.87863Q7.10509282421875,8.0193,7.28887082421875,8.09542Q7.47264882421875,8.17155,7.67156982421875,8.17155Q7.69744092421875,8.17155,7.72327732421875,8.17021Q7.90852182421875,8.16062,8.07800282421875,8.08523Q8.24748482421875,8.00984,8.37865182421875,7.87868Q9.25738982421875,7,10.50001982421875,7Q11.74265982421875,7,12.62130982421875,7.87866Q12.76195982421875,8.01931,12.94573982421875,8.09543Q13.12950982421875,8.17155,13.32841982421875,8.17155Q13.354309824218749,8.17155,13.380159824218751,8.17021Q13.56540982421875,8.16061,13.734879824218751,8.08522Q13.90435982421875,8.00982,14.035529824218749,7.87866Q14.17617982421875,7.7379999999999995,14.252299824218749,7.5542300000000004Q14.32841982421875,7.37046,14.32841982421875,7.17155Q14.32841982421875,7.14752,14.32726982421875,7.12351Q14.318309824218751,6.937276,14.24283982421875,6.766781Q14.16736982421875,6.596285,14.035529824218749,6.464443Q12.57107982421875,5,10.50001982421875,5Q8.42940782421875,5,6.96505382421875,6.463853Z" fill-rule="evenodd" fill="#333333" fill-opacity="1"/></g><g><path d="M20.14613087890625,21.56034087890625L20.14644087890625,21.56066087890625Q20.28709087890625,21.70131087890625,20.47087087890625,21.77743087890625Q20.65464087890625,21.85355087890625,20.85355087890625,21.85355087890625Q21.05246087890625,21.85355087890625,21.236230878906248,21.77743087890625Q21.42000087890625,21.70131087890625,21.56066087890625,21.56066087890625Q21.70131087890625,21.42000087890625,21.77743087890625,21.236230878906248Q21.85355087890625,21.05246087890625,21.85355087890625,20.85355087890625Q21.85355087890625,20.65464087890625,21.77743087890625,20.47087087890625Q21.70131087890625,20.28709087890625,21.56066087890625,20.14644087890625L17.31800787890625,15.90379387890625Q17.17735587890625,15.76314187890625,16.99358387890625,15.68702087890625Q16.80981287890625,15.61090087890625,16.61090087890625,15.61090087890625Q16.41198887890625,15.61090087890625,16.22821787890625,15.68702087890625Q16.04444587890625,15.76314187890625,15.90379387890625,15.90379387890625Q15.76314187890625,16.04444587890625,15.68702087890625,16.22821787890625Q15.61090087890625,16.41198887890625,15.61090087890625,16.61090087890625Q15.61090087890625,16.80981287890625,15.68702087890625,16.99358387890625Q15.76314187890625,17.17735587890625,15.90379387890625,17.31800787890625L20.14613087890625,21.56034087890625Z" fill-rule="evenodd" fill="#333333" fill-opacity="1"/></g></g></svg>
