<svg xmlns="http://www.w3.org/2000/svg" xmlns:xlink="http://www.w3.org/1999/xlink" fill="none" version="1.1" width="22.467618942260742" height="19.188613891601562" viewBox="0 0 22.467618942260742 19.188613891601562"><g><path d="M1.6396,1.70961C2.68976,0.659776,4.11388,0.0700094,5.5988,0.0700094C7.08372,0.0700094,8.50785,0.659776,9.558,1.70961C9.558,1.70961,11.1988,3.34901,11.1988,3.34901C11.1988,3.34901,12.8396,1.70961,12.8396,1.70961C13.3562,1.17476,13.9741,0.748136,14.6573,0.454646C15.3406,0.161155,16.0754,0.00667281,16.819,0.000211438C17.5625,-0.00624993,18.2999,0.13544,18.9881,0.417013C19.6764,0.698586,20.3016,1.1144,20.8274,1.6402C21.3532,2.166,21.769,2.79125,22.0506,3.47947C22.3322,4.16769,22.4739,4.9051,22.4674,5.64866C22.4609,6.39222,22.3065,7.12706,22.013,7.81028C21.7195,8.4935,21.2929,9.11143,20.758,9.62801C20.758,9.62801,11.1988,19.1886,11.1988,19.1886C11.1988,19.1886,1.6396,9.62801,1.6396,9.62801C0.589766,8.57786,0,7.15373,0,5.66881C6.21725e-16,4.18389,0.589766,2.75977,1.6396,1.70961C1.6396,1.70961,1.6396,1.70961,1.6396,1.70961Z" fill-rule="evenodd" fill="#FFFFFF" fill-opacity="1"/></g></svg>