<svg xmlns="http://www.w3.org/2000/svg" xmlns:xlink="http://www.w3.org/1999/xlink" fill="none" version="1.1" width="16.816905975341797" height="16.799999237060547" viewBox="0 0 16.816905975341797 16.799999237060547"><g><path d="M0.409901,0.427404C0.67244,0.164944,1.02847,0.0175025,1.3997,0.0175025C1.77093,0.0175025,2.12696,0.164944,2.3895,0.427404C2.3895,0.427404,8.3997,6.4376,8.3997,6.4376C8.3997,6.4376,14.4099,0.427404,14.4099,0.427404C14.539,0.293689,14.6935,0.187034,14.8643,0.113662C15.0351,0.040289,15.2188,0.0016682,15.4047,0.0000528599C15.5906,-0.00156248,15.775,0.0338596,15.947,0.104253C16.1191,0.174646,16.2754,0.2786,16.4069,0.41005C16.5383,0.5415,16.6423,0.697813,16.7127,0.869868C16.783,1.04192,16.8185,1.22627,16.8169,1.41217C16.8152,1.59806,16.7766,1.78176,16.7032,1.95257C16.6299,2.12337,16.5232,2.27786,16.3895,2.407C16.3895,2.407,10.3793,8.4172,10.3793,8.4172C10.3793,8.4172,16.3895,14.4274,16.3895,14.4274C16.6445,14.6914,16.7856,15.0451,16.7824,15.4122C16.7793,15.7792,16.632,16.1304,16.3724,16.3899C16.1129,16.6495,15.7617,16.7968,15.3947,16.7999C15.0276,16.8031,14.6739,16.662,14.4099,16.407C14.4099,16.407,8.3997,10.3968,8.3997,10.3968C8.3997,10.3968,2.3895,16.407,2.3895,16.407C2.12546,16.662,1.77181,16.8031,1.40474,16.7999C1.03766,16.7968,0.686526,16.6495,0.426955,16.3899C0.167384,16.1304,0.0201468,15.7792,0.016957,15.4122C0.0137672,15.0451,0.15488,14.6914,0.409901,14.4274C0.409901,14.4274,6.4201,8.4172,6.4201,8.4172C6.4201,8.4172,0.409901,2.407,0.409901,2.407C0.147442,2.14446,0,1.78843,0,1.4172C0,1.04597,0.147442,0.689942,0.409901,0.427404C0.409901,0.427404,0.409901,0.427404,0.409901,0.427404Z" fill-rule="evenodd" fill="#4B164C" fill-opacity="1"/></g></svg>