<?xml version="1.0" standalone="no"?><!DOCTYPE svg PUBLIC "-//W3C//DTD SVG 1.1//EN" "http://www.w3.org/Graphics/SVG/1.1/DTD/svg11.dtd"><svg class="icon" width="24px" height="24.00px" viewBox="0 0 1024 1024" version="1.1" xmlns="http://www.w3.org/2000/svg"><path fill="#dd88cf" d="M773.22449 52.244898H271.673469A114.938776 114.938776 0 0 0 156.734694 167.183673v668.734694a114.938776 114.938776 0 0 0 114.938775 114.938776h501.551021a114.938776 114.938776 0 0 0 114.938775-114.938776V167.183673A114.938776 114.938776 0 0 0 773.22449 52.244898z m-501.551021 62.693878h501.551021A52.244898 52.244898 0 0 1 825.469388 167.183673v668.734694a52.244898 52.244898 0 0 1-52.244898 52.244898H271.673469a52.244898 52.244898 0 0 1-52.244898-52.244898V167.183673A52.244898 52.244898 0 0 1 271.673469 114.938776z"  /><path fill="#dd88cf" d="M689.632653 271.673469a31.346939 31.346939 0 0 1 3.009306 62.547592L689.632653 334.367347H355.265306a31.346939 31.346939 0 0 1-3.009306-62.547592L355.265306 271.673469h334.367347zM689.632653 459.755102a31.346939 31.346939 0 0 1 3.009306 62.547592L689.632653 522.44898H355.265306a31.346939 31.346939 0 0 1-3.009306-62.547592L355.265306 459.755102h334.367347zM564.244898 647.836735a31.346939 31.346939 0 0 1 3.009306 62.547592L564.244898 710.530612H355.265306a31.346939 31.346939 0 0 1-3.009306-62.547592L355.265306 647.836735h208.979592z"  /></svg>