<svg xmlns="http://www.w3.org/2000/svg" xmlns:xlink="http://www.w3.org/1999/xlink" fill="none" version="1.1" width="24" height="24" viewBox="0 0 24 24"><g><g><g><path d="M3.0926400646567345,10.404252260742187L20.916540064656733,10.404252260742187Q21.015040064656734,10.404252260742187,21.111640064656733,10.385042260742187Q21.208240064656735,10.365822260742188,21.299240064656736,10.328132260742187Q21.390240064656734,10.290442260742187,21.472140064656735,10.235722260742188Q21.554040064656736,10.181002260742188,21.623740064656733,10.111362260742187Q21.693340064656734,10.041722260742187,21.748040064656735,9.959822260742188Q21.802740064656735,9.877933260742187,21.840440064656736,9.786939260742187Q21.878140064656733,9.695944260742188,21.897340064656735,9.599346260742188Q21.916540064656733,9.502747260742188,21.916540064656733,9.404255260742188Q21.916540064656733,9.305764260742187,21.897340064656735,9.209165260742187Q21.878140064656733,9.112566260742188,21.840440064656736,9.021572060742187Q21.802740064656735,8.930577891742187,21.748040064656735,8.848685260742187Q21.693340064656734,8.766792260742188,21.623740064656733,8.697148260742187Q21.554040064656736,8.627505260742188,21.472140064656735,8.572786260742188Q21.390240064656734,8.518067260742187,21.299240064656736,8.480376260742187Q21.208240064656735,8.442685260742188,21.111640064656733,8.423470260742187Q21.015040064656734,8.404255260742188,20.916540064656733,8.404255260742188L3.0926400646567345,8.404255260742188Q2.9941486646567346,8.404255260742188,2.8975500646567345,8.423470260742187Q2.8009510646567346,8.442685260742188,2.7099570646567344,8.480376260742187Q2.6189620646567344,8.518067260742187,2.5370700646567346,8.572786260742188Q2.4551770646567346,8.627505260742188,2.3855330646567343,8.697149260742188Q2.3158890646567345,8.766792260742188,2.2611700646567345,8.848685260742187Q2.2064520646567347,8.930577903742188,2.1687610646567346,9.021572060742187Q2.1310700646567344,9.112566260742188,2.1118550646567344,9.209165260742187Q2.0926400646567345,9.305764260742187,2.0926400646567345,9.404255260742188Q2.0926400646567345,9.502747260742188,2.1118550646567344,9.599346260742188Q2.1310700646567344,9.695944260742188,2.1687610646567346,9.786939260742187Q2.2064520646567347,9.877933260742187,2.2611700646567345,9.959822260742188Q2.3158890646567345,10.041722260742187,2.3855330646567343,10.111362260742187Q2.4551770646567346,10.181002260742188,2.5370700646567346,10.235722260742188Q2.6189620646567344,10.290442260742187,2.7099570646567344,10.328132260742187Q2.8009510646567346,10.365822260742188,2.8975500646567345,10.385042260742187Q2.9941486646567346,10.404252260742187,3.0926400646567345,10.404252260742187Z" fill-rule="evenodd" fill="#FFFFFF" fill-opacity="1"/></g><g><path d="M15.442073249023437,13.30969273022461Q15.442073249023437,13.40818473022461,15.461288249023438,13.50478373022461Q15.480503249023437,13.60138173022461,15.518194249023438,13.692376730224609Q15.555885249023438,13.78337073022461,15.610604249023437,13.86525973022461Q15.665323249023437,13.947159730224609,15.734967249023438,14.016799730224609Q15.804611249023438,14.08643973022461,15.886503349023437,14.14115973022461Q15.968395949023437,14.19587973022461,16.059390149023436,14.233569730224609Q16.15038424902344,14.27125973022461,16.246983249023437,14.29047973022461Q16.343582249023438,14.309689730224608,16.442073249023437,14.309689730224608L16.45133724902344,14.309689730224608Q16.54982924902344,14.309689730224608,16.646428249023437,14.29047973022461Q16.743026249023437,14.27125973022461,16.834021249023436,14.233569730224609Q16.92501524902344,14.19587973022461,17.006905249023436,14.14115973022461Q17.088795249023438,14.08643973022461,17.158445249023437,14.016799730224609Q17.228085249023437,13.947159730224609,17.282805249023436,13.86525973022461Q17.337525249023436,13.78337073022461,17.375215249023437,13.692376730224609Q17.41290524902344,13.60138173022461,17.432125249023436,13.50478373022461Q17.451335249023437,13.40818473022461,17.451335249023437,13.30969273022461Q17.451335249023437,13.211201730224609,17.432125249023436,13.11460273022461Q17.41290524902344,13.01800373022461,17.375215249023437,12.927009530224609Q17.337525249023436,12.836015361224609,17.282805249023436,12.754122730224609Q17.228085249023437,12.67222973022461,17.158445249023437,12.60258573022461Q17.088795249023438,12.53294273022461,17.006905249023436,12.47822373022461Q16.92501524902344,12.423504730224609,16.834021249023436,12.385813730224609Q16.743026249023437,12.34812273022461,16.646428249023437,12.328907730224609Q16.54982924902344,12.30969273022461,16.45133724902344,12.30969273022461L16.442073249023437,12.30969273022461Q16.343582249023438,12.30969273022461,16.246983249023437,12.328907730224609Q16.15038424902344,12.34812273022461,16.059390149023436,12.385813730224609Q15.968395949023437,12.423504730224609,15.886503349023437,12.47822373022461Q15.804611249023438,12.53294273022461,15.734967249023438,12.60258673022461Q15.665323249023437,12.67222973022461,15.610604249023437,12.754122730224609Q15.555885249023438,12.83601537322461,15.518194249023438,12.927009530224609Q15.480503249023437,13.01800373022461,15.461288249023438,13.11460273022461Q15.442073249023437,13.211201730224609,15.442073249023437,13.30969273022461Z" fill-rule="evenodd" fill="#FFFFFF" fill-opacity="1"/></g><g><path d="M11.004614257019043,13.30969273022461Q11.004614257019043,13.40818473022461,11.023829257019043,13.50478373022461Q11.043044257019043,13.60138173022461,11.080735257019043,13.692376730224609Q11.118426257019044,13.78337073022461,11.173145257019042,13.86525973022461Q11.227864257019043,13.947159730224609,11.297508257019043,14.016799730224609Q11.367152257019043,14.08643973022461,11.449044357019043,14.14115973022461Q11.530936957019042,14.19587973022461,11.621931157019043,14.233569730224609Q11.712925257019043,14.27125973022461,11.809524257019042,14.29047973022461Q11.906123257019043,14.309689730224608,12.004614257019043,14.309689730224608L12.013878257019043,14.309689730224608Q12.112370257019043,14.309689730224608,12.208969257019042,14.29047973022461Q12.305567257019042,14.27125973022461,12.396562257019044,14.233569730224609Q12.487556257019042,14.19587973022461,12.569446257019044,14.14115973022461Q12.651336257019043,14.08643973022461,12.720986257019042,14.016799730224609Q12.790626257019042,13.947159730224609,12.845346257019044,13.86525973022461Q12.900066257019043,13.78337073022461,12.937756257019043,13.692376730224609Q12.975446257019042,13.60138173022461,12.994666257019043,13.50478373022461Q13.013876257019042,13.40818473022461,13.013876257019042,13.30969273022461Q13.013876257019042,13.211201730224609,12.994666257019043,13.11460273022461Q12.975446257019042,13.01800373022461,12.937756257019043,12.927009530224609Q12.900066257019043,12.836015361224609,12.845346257019044,12.754122730224609Q12.790626257019042,12.67222973022461,12.720986257019042,12.60258573022461Q12.651336257019043,12.53294273022461,12.569446257019044,12.47822373022461Q12.487556257019042,12.423504730224609,12.396562257019044,12.385813730224609Q12.305567257019042,12.34812273022461,12.208969257019042,12.328907730224609Q12.112370257019043,12.30969273022461,12.013878257019043,12.30969273022461L12.004614257019043,12.30969273022461Q11.906123257019043,12.30969273022461,11.809524257019042,12.328907730224609Q11.712925257019043,12.34812273022461,11.621931157019043,12.385813730224609Q11.530936957019042,12.423504730224609,11.449044357019043,12.47822373022461Q11.367152257019043,12.53294273022461,11.297508257019043,12.60258673022461Q11.227864257019043,12.67222973022461,11.173145257019042,12.754122730224609Q11.118426257019044,12.83601537322461,11.080735257019043,12.927009530224609Q11.043044257019043,13.01800373022461,11.023829257019043,13.11460273022461Q11.004614257019043,13.211201730224609,11.004614257019043,13.30969273022461Z" fill-rule="evenodd" fill="#FFFFFF" fill-opacity="1"/></g><g><path d="M6.55789079586792,13.30969273022461Q6.55789079586792,13.40818473022461,6.5771057958679195,13.50478373022461Q6.5963207958679195,13.60138173022461,6.63401179586792,13.692376730224609Q6.67170279586792,13.78337073022461,6.72642179586792,13.86525973022461Q6.78114079586792,13.947159730224609,6.85078479586792,14.016799730224609Q6.92042879586792,14.08643973022461,7.0023208958679195,14.14115973022461Q7.08421349586792,14.19587973022461,7.17520769586792,14.233569730224609Q7.26620179586792,14.27125973022461,7.36280079586792,14.29047973022461Q7.45939979586792,14.309689730224608,7.55789079586792,14.309689730224608L7.5671547958679195,14.309689730224608Q7.66564679586792,14.309689730224608,7.76224579586792,14.29047973022461Q7.85884379586792,14.27125973022461,7.94983879586792,14.233569730224609Q8.040832795867919,14.19587973022461,8.12272279586792,14.14115973022461Q8.20461279586792,14.08643973022461,8.27426279586792,14.016799730224609Q8.343902795867919,13.947159730224609,8.39862279586792,13.86525973022461Q8.45334279586792,13.78337073022461,8.49103279586792,13.692376730224609Q8.52872279586792,13.60138173022461,8.54794279586792,13.50478373022461Q8.56715279586792,13.40818473022461,8.56715279586792,13.30969273022461Q8.56715279586792,13.211201730224609,8.54794279586792,13.11460273022461Q8.52872279586792,13.01800373022461,8.49103279586792,12.927009530224609Q8.45334279586792,12.836015361224609,8.39862279586792,12.754122730224609Q8.343902795867919,12.67222973022461,8.27426279586792,12.60258573022461Q8.20461279586792,12.53294273022461,8.12272279586792,12.47822373022461Q8.040832795867919,12.423504730224609,7.94983879586792,12.385813730224609Q7.85884379586792,12.34812273022461,7.76224579586792,12.328907730224609Q7.66564679586792,12.30969273022461,7.5671547958679195,12.30969273022461L7.55789079586792,12.30969273022461Q7.45939979586792,12.30969273022461,7.36280079586792,12.328907730224609Q7.26620179586792,12.34812273022461,7.17520769586792,12.385813730224609Q7.08421349586792,12.423504730224609,7.0023208958679195,12.47822373022461Q6.92042879586792,12.53294273022461,6.85078479586792,12.60258673022461Q6.78114079586792,12.67222973022461,6.72642179586792,12.754122730224609Q6.67170279586792,12.83601537322461,6.63401179586792,12.927009530224609Q6.5963207958679195,13.01800373022461,6.5771057958679195,13.11460273022461Q6.55789079586792,13.211201730224609,6.55789079586792,13.30969273022461Z" fill-rule="evenodd" fill="#FFFFFF" fill-opacity="1"/></g><g><path d="M15.442073249023437,17.19621693066406Q15.442073249023437,17.29470893066406,15.461288249023438,17.391307930664063Q15.480503249023437,17.487905930664063,15.518194249023438,17.578900930664062Q15.555885249023438,17.669894930664064,15.610604249023437,17.75178393066406Q15.665323249023437,17.833683930664062,15.734967249023438,17.90332393066406Q15.804611249023438,17.97296393066406,15.886503349023437,18.02768393066406Q15.968395949023437,18.082403930664064,16.059390149023436,18.120093930664062Q16.15038424902344,18.157783930664063,16.246983249023437,18.177003930664064Q16.343582249023438,18.19621393066406,16.442073249023437,18.19621393066406L16.45133724902344,18.19621393066406Q16.54982924902344,18.19621393066406,16.646428249023437,18.177003930664064Q16.743026249023437,18.157783930664063,16.834021249023436,18.120093930664062Q16.92501524902344,18.082403930664064,17.006905249023436,18.02768393066406Q17.088795249023438,17.97296393066406,17.158445249023437,17.90332393066406Q17.228085249023437,17.833683930664062,17.282805249023436,17.75178393066406Q17.337525249023436,17.669894930664064,17.375215249023437,17.578900930664062Q17.41290524902344,17.487905930664063,17.432125249023436,17.391307930664063Q17.451335249023437,17.29470893066406,17.451335249023437,17.19621693066406Q17.451335249023437,17.097725930664062,17.432125249023436,17.001126930664064Q17.41290524902344,16.904527930664063,17.375215249023437,16.813533730664062Q17.337525249023436,16.722539561664064,17.282805249023436,16.64064693066406Q17.228085249023437,16.55875393066406,17.158445249023437,16.489109930664064Q17.088795249023438,16.41946693066406,17.006905249023436,16.364747930664063Q16.92501524902344,16.310028930664064,16.834021249023436,16.27233793066406Q16.743026249023437,16.234646930664063,16.646428249023437,16.215431930664064Q16.54982924902344,16.19621693066406,16.45133724902344,16.19621693066406L16.442073249023437,16.19621693066406Q16.343582249023438,16.19621693066406,16.246983249023437,16.215431930664064Q16.15038424902344,16.234646930664063,16.059390149023436,16.27233793066406Q15.968395949023437,16.310028930664064,15.886503349023437,16.364747930664063Q15.804611249023438,16.41946693066406,15.734967249023438,16.48911093066406Q15.665323249023437,16.55875393066406,15.610604249023437,16.64064693066406Q15.555885249023438,16.72253957366406,15.518194249023438,16.813533730664062Q15.480503249023437,16.904527930664063,15.461288249023438,17.001126930664064Q15.442073249023437,17.097725930664062,15.442073249023437,17.19621693066406Z" fill-rule="evenodd" fill="#FFFFFF" fill-opacity="1"/></g><g><path d="M11.004614257019043,17.19621693066406Q11.004614257019043,17.29470893066406,11.023829257019043,17.391307930664063Q11.043044257019043,17.487905930664063,11.080735257019043,17.578900930664062Q11.118426257019044,17.669894930664064,11.173145257019042,17.75178393066406Q11.227864257019043,17.833683930664062,11.297508257019043,17.90332393066406Q11.367152257019043,17.97296393066406,11.449044357019043,18.02768393066406Q11.530936957019042,18.082403930664064,11.621931157019043,18.120093930664062Q11.712925257019043,18.157783930664063,11.809524257019042,18.177003930664064Q11.906123257019043,18.19621393066406,12.004614257019043,18.19621393066406L12.013878257019043,18.19621393066406Q12.112370257019043,18.19621393066406,12.208969257019042,18.177003930664064Q12.305567257019042,18.157783930664063,12.396562257019044,18.120093930664062Q12.487556257019042,18.082403930664064,12.569446257019044,18.02768393066406Q12.651336257019043,17.97296393066406,12.720986257019042,17.90332393066406Q12.790626257019042,17.833683930664062,12.845346257019044,17.75178393066406Q12.900066257019043,17.669894930664064,12.937756257019043,17.578900930664062Q12.975446257019042,17.487905930664063,12.994666257019043,17.391307930664063Q13.013876257019042,17.29470893066406,13.013876257019042,17.19621693066406Q13.013876257019042,17.097725930664062,12.994666257019043,17.001126930664064Q12.975446257019042,16.904527930664063,12.937756257019043,16.813533730664062Q12.900066257019043,16.722539561664064,12.845346257019044,16.64064693066406Q12.790626257019042,16.55875393066406,12.720986257019042,16.489109930664064Q12.651336257019043,16.41946693066406,12.569446257019044,16.364747930664063Q12.487556257019042,16.310028930664064,12.396562257019044,16.27233793066406Q12.305567257019042,16.234646930664063,12.208969257019042,16.215431930664064Q12.112370257019043,16.19621693066406,12.013878257019043,16.19621693066406L12.004614257019043,16.19621693066406Q11.906123257019043,16.19621693066406,11.809524257019042,16.215431930664064Q11.712925257019043,16.234646930664063,11.621931157019043,16.27233793066406Q11.530936957019042,16.310028930664064,11.449044357019043,16.364747930664063Q11.367152257019043,16.41946693066406,11.297508257019043,16.48911093066406Q11.227864257019043,16.55875393066406,11.173145257019042,16.64064693066406Q11.118426257019044,16.72253957366406,11.080735257019043,16.813533730664062Q11.043044257019043,16.904527930664063,11.023829257019043,17.001126930664064Q11.004614257019043,17.097725930664062,11.004614257019043,17.19621693066406Z" fill-rule="evenodd" fill="#FFFFFF" fill-opacity="1"/></g><g><path d="M6.55789079586792,17.19621693066406Q6.55789079586792,17.29470893066406,6.5771057958679195,17.391307930664063Q6.5963207958679195,17.487905930664063,6.63401179586792,17.578900930664062Q6.67170279586792,17.669894930664064,6.72642179586792,17.75178393066406Q6.78114079586792,17.833683930664062,6.85078479586792,17.90332393066406Q6.92042879586792,17.97296393066406,7.0023208958679195,18.02768393066406Q7.08421349586792,18.082403930664064,7.17520769586792,18.120093930664062Q7.26620179586792,18.157783930664063,7.36280079586792,18.177003930664064Q7.45939979586792,18.19621393066406,7.55789079586792,18.19621393066406L7.5671547958679195,18.19621393066406Q7.66564679586792,18.19621393066406,7.76224579586792,18.177003930664064Q7.85884379586792,18.157783930664063,7.94983879586792,18.120093930664062Q8.040832795867919,18.082403930664064,8.12272279586792,18.02768393066406Q8.20461279586792,17.97296393066406,8.27426279586792,17.90332393066406Q8.343902795867919,17.833683930664062,8.39862279586792,17.75178393066406Q8.45334279586792,17.669894930664064,8.49103279586792,17.578900930664062Q8.52872279586792,17.487905930664063,8.54794279586792,17.391307930664063Q8.56715279586792,17.29470893066406,8.56715279586792,17.19621693066406Q8.56715279586792,17.097725930664062,8.54794279586792,17.001126930664064Q8.52872279586792,16.904527930664063,8.49103279586792,16.813533730664062Q8.45334279586792,16.722539561664064,8.39862279586792,16.64064693066406Q8.343902795867919,16.55875393066406,8.27426279586792,16.489109930664064Q8.20461279586792,16.41946693066406,8.12272279586792,16.364747930664063Q8.040832795867919,16.310028930664064,7.94983879586792,16.27233793066406Q7.85884379586792,16.234646930664063,7.76224579586792,16.215431930664064Q7.66564679586792,16.19621693066406,7.5671547958679195,16.19621693066406L7.55789079586792,16.19621693066406Q7.45939979586792,16.19621693066406,7.36280079586792,16.215431930664064Q7.26620179586792,16.234646930664063,7.17520769586792,16.27233793066406Q7.08421349586792,16.310028930664064,7.0023208958679195,16.364747930664063Q6.92042879586792,16.41946693066406,6.85078479586792,16.48911093066406Q6.78114079586792,16.55875393066406,6.72642179586792,16.64064693066406Q6.67170279586792,16.72253957366406,6.63401179586792,16.813533730664062Q6.5963207958679195,16.904527930664063,6.5771057958679195,17.001126930664064Q6.55789079586792,17.097725930664062,6.55789079586792,17.19621693066406Z" fill-rule="evenodd" fill="#FFFFFF" fill-opacity="1"/></g><g><path d="M15.043720629882813,1.9999999999999774L15.043720629882813,5.290779999999977Q15.043720629882813,5.389269999999977,15.062935629882812,5.485869999999977Q15.082150629882813,5.582469999999978,15.119841629882812,5.673459999999977Q15.157532629882812,5.7644599999999775,15.212251629882813,5.846349999999978Q15.266970629882813,5.9282399999999775,15.336614629882812,5.997889999999977Q15.406258629882812,6.0675299999999766,15.488150729882813,6.122249999999978Q15.570043329882813,6.176969999999978,15.661037529882812,6.214659999999977Q15.752031629882813,6.252349999999977,15.848630629882813,6.271569999999977Q15.945229629882812,6.290779999999977,16.043720629882813,6.290779999999977Q16.142212629882813,6.290779999999977,16.23881162988281,6.271559999999978Q16.33540962988281,6.252349999999977,16.426404629882814,6.214659999999977Q16.517398629882813,6.176969999999978,16.599290629882812,6.122249999999978Q16.681180629882814,6.0675299999999766,16.750830629882813,5.997889999999977Q16.820470629882813,5.9282399999999775,16.875190629882812,5.846349999999978Q16.929910629882812,5.7644599999999775,16.967600629882813,5.673459999999977Q17.00529062988281,5.582469999999978,17.024510629882812,5.485869999999977Q17.043720629882813,5.389269999999977,17.043720629882813,5.290779999999977L17.043720629882813,1.9999999999999774Q17.043720629882813,1.9015085999999775,17.024510629882812,1.8049099999999774Q17.00529062988281,1.7083109999999775,16.967600629882813,1.6173169999999772Q16.929910629882812,1.5263219999999773,16.875190629882812,1.4444299999999775Q16.820470629882813,1.3625369999999775,16.750830629882813,1.2928929999999772Q16.681180629882814,1.2232489999999774,16.599290629882812,1.1685299999999774Q16.517398629882813,1.1138119999999774,16.426404629882814,1.0761209999999775Q16.33540962988281,1.0384299999999773,16.23881162988281,1.0192149999999773Q16.142212629882813,0.9999999999999774,16.043720629882813,0.9999999999999774Q15.945229629882812,0.9999999999999774,15.848630629882813,1.0192149999999773Q15.752031629882813,1.0384299999999773,15.661037529882812,1.0761209999999775Q15.570043329882813,1.1138119999999774,15.488150729882813,1.1685299999999774Q15.406258629882812,1.2232489999999774,15.336614629882812,1.2928929999999772Q15.266970629882813,1.3625369999999775,15.212251629882813,1.4444299999999775Q15.157532629882812,1.5263219999999773,15.119841629882812,1.6173169999999772Q15.082150629882813,1.7083109999999775,15.062935629882812,1.8049099999999774Q15.043720629882813,1.9015085999999775,15.043720629882813,1.9999999999999774Z" fill-rule="evenodd" fill="#FFFFFF" fill-opacity="1"/></g><g><path d="M6.9655074150085445,1.9999999999999774L6.9655074150085445,5.290779999999977Q6.9655074150085445,5.389269999999977,6.9847224150085445,5.485869999999977Q7.003937415008545,5.582469999999978,7.041628415008545,5.673459999999977Q7.079319415008545,5.7644599999999775,7.134038415008545,5.846349999999978Q7.188757415008545,5.9282399999999775,7.258401415008545,5.997889999999977Q7.328045415008545,6.0675299999999766,7.409937515008545,6.122249999999978Q7.491830115008545,6.176969999999978,7.582824315008545,6.214659999999977Q7.673818415008545,6.252349999999977,7.770417415008545,6.271569999999977Q7.867016415008545,6.290779999999977,7.9655074150085445,6.290779999999977Q8.063999415008546,6.290779999999977,8.160598415008545,6.271559999999978Q8.257196415008545,6.252349999999977,8.348191415008545,6.214659999999977Q8.439185415008545,6.176969999999978,8.521077415008545,6.122249999999978Q8.602967415008544,6.0675299999999766,8.672617415008546,5.997889999999977Q8.742257415008545,5.9282399999999775,8.796977415008545,5.846349999999978Q8.851697415008545,5.7644599999999775,8.889387415008546,5.673459999999977Q8.927077415008545,5.582469999999978,8.946297415008544,5.485869999999977Q8.965507415008545,5.389269999999977,8.965507415008545,5.290779999999977L8.965507415008545,1.9999999999999774Q8.965507415008545,1.9015085999999775,8.946297415008544,1.8049099999999774Q8.927077415008545,1.7083109999999775,8.889387415008546,1.6173169999999772Q8.851697415008545,1.5263219999999773,8.796977415008545,1.4444299999999775Q8.742257415008545,1.3625369999999775,8.672617415008546,1.2928929999999772Q8.602967415008544,1.2232489999999774,8.521077415008545,1.1685299999999774Q8.439185415008545,1.1138119999999774,8.348191415008545,1.0761209999999775Q8.257196415008545,1.0384299999999773,8.160598415008545,1.0192149999999773Q8.063999415008546,0.9999999999999774,7.9655074150085445,0.9999999999999774Q7.867016415008545,0.9999999999999774,7.770417415008545,1.0192149999999773Q7.673818415008545,1.0384299999999773,7.582824315008545,1.0761209999999775Q7.491830115008545,1.1138119999999774,7.409937515008545,1.1685299999999774Q7.328045415008545,1.2232489999999774,7.258401415008545,1.2928929999999772Q7.188757415008545,1.3625369999999775,7.134038415008545,1.4444299999999775Q7.079319415008545,1.5263219999999773,7.041628415008545,1.6173169999999772Q7.003937415008545,1.7083109999999775,6.9847224150085445,1.8049099999999774Q6.9655074150085445,1.9015085999999775,6.9655074150085445,1.9999999999999774Z" fill-rule="evenodd" fill="#FFFFFF" fill-opacity="1"/></g><g><path d="M22,17.347496214675903L22,8.224036214675904L22,8.222226214675903Q22.0072,5.564866214675903,20.4173,4.049235214675903Q18.8752,2.5791962146759033,16.238300000000002,2.5791962146759033L7.77096,2.5791962146759033Q5.14065,2.5791962146759033,3.595244,4.048268214675903Q2,5.5647162146759035,2,8.222226214675903L2,17.271896214675905Q2,19.959996214675904,3.588256,21.499396214675905Q5.13652,22.999996214675903,7.77096,22.999996214675903L16.229,22.999996214675903Q18.8646,22.999996214675903,20.4098,21.524696214675902Q22,20.006396214675902,22,17.347496214675903ZM19.0373,5.4968662146759035Q20.0055,6.419816214675903,20,8.219146214675902L20,8.222226214675903L20,17.347496214675903Q20,19.150696214675904,19.0286,20.078196214675902Q18.063200000000002,20.999996214675903,16.229,20.999996214675903L7.77096,20.999996214675903Q5.94669,20.999996214675903,4.98019,20.063296214675905Q4,19.113196214675902,4,17.271896214675905L4,8.222226214675903Q4,6.422956214675903,4.9732,5.497826214675904Q5.93957,4.579196214675903,7.77096,4.579196214675903L16.238300000000002,4.579196214675903Q18.0747,4.579196214675903,19.0373,5.4968662146759035Z" fill-rule="evenodd" fill="#FFFFFF" fill-opacity="1"/></g></g></g></svg>