<?xml version="1.0" standalone="no"?><!DOCTYPE svg PUBLIC "-//W3C//DTD SVG 1.1//EN" "http://www.w3.org/Graphics/SVG/1.1/DTD/svg11.dtd"><svg t="1690767427363" class="icon" viewBox="0 0 1025 1024" version="1.1" xmlns="http://www.w3.org/2000/svg" p-id="4107" xmlns:xlink="http://www.w3.org/1999/xlink" width="24.0234375" height="24"><path d="M1017.616 320l-81.28-225.92a116.48 116.48 0 0 0-109.44-76.8H197.136a116.48 116.48 0 0 0-110.08 76.8L6.416 320a112 112 0 0 0-6.4 37.12 114.56 114.56 0 0 0 85.12 112.64v423.04A112 112 0 0 0 192.016 1006.72h640a112 112 0 0 0 109.44-113.92V469.76h6.4A113.92 113.92 0 0 0 1017.616 320zM356.496 930.56H192.016a35.2 35.2 0 0 1-32-37.76V474.24h192z m504.32-37.76a35.2 35.2 0 0 1-32 37.76H434.576V474.24h426.88z m81.28-516.48a37.76 37.76 0 0 1-22.4 19.2 39.04 39.04 0 0 1-12.8 0H116.496a38.4 38.4 0 0 1-39.04-38.4 37.12 37.12 0 0 1 0-12.16l83.2-225.92a38.4 38.4 0 0 1 36.48-25.6h629.12a39.04 39.04 0 0 1 36.48 25.6l80.64 228.48a37.76 37.76 0 0 1-1.28 28.8z" fill="#a58aa5" p-id="4108"></path><path d="M717.456 763.52a37.76 37.76 0 0 0 37.76-37.76v-39.04a37.76 37.76 0 1 0-75.52 0v39.04a37.76 37.76 0 0 0 37.76 37.76z" fill="#a58aa5" p-id="4109"></path></svg>