<svg xmlns="http://www.w3.org/2000/svg" xmlns:xlink="http://www.w3.org/1999/xlink" fill="none" version="1.1" width="24" height="24" viewBox="0 0 24 24"><defs><clipPath id="master_svg0_1_1693"><rect x="0" y="0" width="24" height="24" rx="0"/></clipPath></defs><g clip-path="url(#master_svg0_1_1693)"><g><path d="M1.5,17.5L1.5,8.5Q1.5,7.257359,2.37868,6.37868Q3.257359,5.5,4.5,5.5L19.5,5.5Q20.7426,5.5,21.6213,6.37868Q22.5,7.257358,22.5,8.5L22.5,17.5Q22.5,18.7426,21.6213,19.621299999999998Q20.7426,20.5,19.5,20.5L4.5,20.5Q3.257361,20.5,2.37868,19.621299999999998Q1.5,18.7426,1.5,17.5ZM3.5,17.5Q3.5,17.9142,3.79289,18.2071Q4.08579,18.5,4.5,18.5L19.5,18.5Q19.9142,18.5,20.2071,18.2071Q20.5,17.9142,20.5,17.5L20.5,8.5Q20.5,8.08579,20.2071,7.79289Q19.9142,7.5,19.5,7.5L4.5,7.5Q4.08579,7.5,3.79289,7.79289Q3.5,8.08579,3.5,8.5L3.5,17.5Z" fill="#FFFFFF" fill-opacity="1"/></g><g><path d="M11.5,15.5L11.5,10Q11.5,9.9015086,11.519214999999999,9.80491Q11.53843,9.708311,11.576121,9.617317Q11.613812,9.526322,11.66853,9.44443Q11.723249,9.362537,11.792893,9.292893Q11.862537,9.223249,11.94443,9.16853Q12.026322,9.113812,12.117317,9.076121Q12.208311,9.03843,12.30491,9.019214999999999Q12.4015086,9,12.5,9L21.5,9Q21.598489999999998,9,21.69509,9.019214999999999Q21.79169,9.03843,21.88268,9.076121Q21.97368,9.113812,22.05557,9.16853Q22.13746,9.223249,22.20711,9.292893Q22.27675,9.362537,22.33147,9.44443Q22.38619,9.526322,22.42388,9.617317Q22.461570000000002,9.708311,22.48078,9.80491Q22.5,9.9015086,22.5,10L22.5,15.5Q22.5,15.59849,22.48078,15.69509Q22.461570000000002,15.79169,22.42388,15.88268Q22.38619,15.97368,22.33147,16.05557Q22.27675,16.13746,22.20711,16.20711Q22.13746,16.27675,22.05557,16.33147Q21.97368,16.38619,21.88268,16.42388Q21.79169,16.461570000000002,21.69509,16.48078Q21.598489999999998,16.5,21.5,16.5L12.5,16.5Q12.4015086,16.5,12.30491,16.48078Q12.208311,16.461570000000002,12.117317,16.42388Q12.026322,16.38619,11.94443,16.33147Q11.862537,16.27675,11.792893,16.20711Q11.723249,16.13746,11.66853,16.05557Q11.613812,15.97368,11.576121,15.88268Q11.53843,15.79169,11.519214999999999,15.69509Q11.5,15.59849,11.5,15.5ZM13.5,11L13.5,14.5L20.5,14.5L20.5,11L13.5,11Z" fill="#FFFFFF" fill-opacity="1"/></g><g><path d="M20.5,9L20.5,16.5Q20.5,16.598489999999998,20.519215,16.69509Q20.538429999999998,16.79169,20.576121,16.88268Q20.613812,16.97368,20.66853,17.05557Q20.723249,17.13746,20.792893,17.20711Q20.862537,17.27675,20.94443,17.33147Q21.026322,17.38619,21.117317,17.42388Q21.208311,17.461570000000002,21.30491,17.48078Q21.4015086,17.5,21.5,17.5Q21.5984914,17.5,21.69509,17.48078Q21.791689,17.461570000000002,21.882683,17.42388Q21.973678,17.38619,22.05557,17.33147Q22.137463,17.27675,22.207107,17.20711Q22.276751,17.13746,22.33147,17.05557Q22.386188,16.97368,22.423879,16.88268Q22.461570000000002,16.79169,22.480785,16.69509Q22.5,16.598489999999998,22.5,16.5L22.5,9Q22.5,8.9015086,22.480785,8.80491Q22.461570000000002,8.708311,22.423879,8.617317Q22.386188,8.526322,22.33147,8.44443Q22.276751,8.362537,22.207107,8.292893Q22.137463,8.223249,22.05557,8.16853Q21.973678,8.113812,21.882683,8.076121Q21.791689,8.03843,21.69509,8.019214999999999Q21.5984914,8,21.5,8Q21.4015086,8,21.30491,8.019214999999999Q21.208311,8.03843,21.117317,8.076121Q21.026322,8.113812,20.94443,8.16853Q20.862537,8.223249,20.792893,8.292893Q20.723249,8.362537,20.66853,8.44443Q20.613812,8.526322,20.576121,8.617317Q20.538429999999998,8.708311,20.519215,8.80491Q20.5,8.9015086,20.5,9Z" fill-rule="evenodd" fill="#FFFFFF" fill-opacity="1"/></g><g><path d="M3,5.64925L3,6.5Q3,6.59849,3.019215,6.69509Q3.03843,6.79169,3.076121,6.882680000000001Q3.1138120000000002,6.97368,3.16853,7.0555699999999995Q3.223249,7.13746,3.292893,7.20711Q3.362537,7.27675,3.44443,7.3314699999999995Q3.526322,7.38619,3.617317,7.4238800000000005Q3.708311,7.46157,3.80491,7.48078Q3.9015086,7.5,4,7.5Q4.0984914,7.5,4.19509,7.48078Q4.291689,7.46157,4.382683,7.4238800000000005Q4.473678,7.38619,4.55557,7.3314699999999995Q4.637463,7.27675,4.707107,7.20711Q4.776751,7.13746,4.83147,7.0555699999999995Q4.886188,6.97368,4.923879,6.882680000000001Q4.96157,6.79169,4.980785,6.69509Q5,6.59849,5,6.5L5,5.64925Q5,5.23765,5.2485599999999994,4.9078800000000005Q5.556,4.5,6.25,4.5L13.5,4.5Q13.98945,4.5,14.3955,4.83443Q15,5.3322199999999995,15,6.5Q15,6.59849,15.0192,6.69509Q15.0384,6.79169,15.0761,6.882680000000001Q15.1138,6.97368,15.1685,7.0555699999999995Q15.2232,7.13746,15.2929,7.20711Q15.3625,7.27675,15.4444,7.3314699999999995Q15.5263,7.38619,15.6173,7.4238800000000005Q15.7083,7.46157,15.8049,7.48078Q15.9015,7.5,16,7.5Q16.0985,7.5,16.1951,7.48078Q16.2917,7.46157,16.3827,7.4238800000000005Q16.4737,7.38619,16.5556,7.3314699999999995Q16.6375,7.27675,16.7071,7.20711Q16.776699999999998,7.13746,16.8315,7.0555699999999995Q16.886200000000002,6.97368,16.9239,6.882680000000001Q16.9616,6.79169,16.980800000000002,6.69509Q17,6.59849,17,6.5Q17,4.388371,15.667,3.2905699999999998Q14.707,2.5,13.5,2.5L6.25,2.5Q4.558997,2.5,3.65144,3.704054Q3,4.56832,3,5.64925Z" fill-rule="evenodd" fill="#FFFFFF" fill-opacity="1"/></g><g><ellipse cx="16.75" cy="12.75" rx="0.75" ry="0.75" fill="#FFFFFF" fill-opacity="1"/></g></g></svg>